<svg width="65" height="64" xmlns="http://www.w3.org/2000/svg">
    <path d="M32.5 0c17.67.007 31.993 14.33 32 32 0 17.673-14.327 32-32 32-17.673 0-32-14.327-32-32 0-17.673 14.327-32 32-32zm-.003 3.997-.755.013C16.628 4.412 4.5 16.79 4.5 32c0 15.464 12.536 28 28 28s28-12.536 28-27.999c-.006-15.208-12.132-27.583-27.243-27.99l-.76-.014zm17.889 15.45a2.667 2.667 0 0 1 .221 3.52l-.221.252-21.334 21.333a2.667 2.667 0 0 1-3.52.222l-.251-.222-10.667-10.666a2.667 2.667 0 0 1 3.52-3.993l.252.221 8.78 8.78 19.448-19.446a2.667 2.667 0 0 1 3.772 0z" fill="#008C4B" fill-rule="evenodd"/>
</svg>
