<svg width="64" height="64" xmlns="http://www.w3.org/2000/svg">
    <path d="M54.627 9.373c12.478 12.477 12.478 32.777 0 45.254-12.477 12.478-32.777 12.478-45.254 0-12.478-12.477-12.478-32.777 0-45.254 12.477-12.478 32.777-12.478 45.254 0zM12.201 12.2c-10.918 10.918-10.918 28.68 0 39.598s28.68 10.918 39.598 0 10.918-28.68 0-39.598-28.68-10.918-39.598 0zm10.065 6.946.209.185 9.54 9.54 9.54-9.54a2.222 2.222 0 0 1 3.327 2.934l-.185.209-9.54 9.54 9.54 9.54a2.222 2.222 0 0 1-2.933 3.327l-.21-.185-9.54-9.54-9.539 9.54a2.222 2.222 0 0 1-3.328-2.933l.185-.21 9.54-9.54-9.54-9.539a2.222 2.222 0 0 1 2.934-3.328z" fill="#DA2A2A" fill-rule="evenodd"/>
</svg>
